<svg blocklyprop="blocklypropproject" xmlns="http://www.w3.org/2000/svg" xmlns:html="http://www.w3.org/1999/xhtml" xmlns:xlink="http://www.w3.org/1999/xlink" version="1.1" class="blocklySvg"><style>.blocklySvg { background-color: #fff; overflow: auto; width:837px; height:299px;} .blocklyWidgetDiv {display: none; position: absolute; z-index: 999;} .blocklyPathLight { fill: none; stroke-linecap: round; stroke-width: 2;} .blocklyDisabled>.blocklyPath { fill-opacity: .5; stroke-opacity: .5;} .blocklyDisabled>.blocklyPathLight, .blocklyDisabled>.blocklyPathDark {display: none;} .blocklyText {cursor: default; fill: #fff; font-family: sans-serif; font-size: 11pt;} .blocklyNonEditableText>text { pointer-events: none;} .blocklyNonEditableText>rect, .blocklyEditableText>rect {fill: #fff; fill-opacity: .6;} .blocklyNonEditableText>text, .blocklyEditableText>text {fill: #000;} .blocklyBubbleText {fill: #000;} .blocklySvg text {user-select: none; -moz-user-select: none; -webkit-user-select: none; cursor: inherit;} .blocklyHidden {display: none;} .blocklyFieldDropdown:not(.blocklyHidden) {display: block;} .bkginfo {cursor: default; fill: rgba(0, 0, 0, 0.3); font-family: sans-serif; font-size: 10pt;}</style><g class="blocklyBlockCanvas" transform="translate(140,0) scale(1)"><g data-id="{vn!*lt-FAD+1Kt`Onpi" class="blocklyDraggable" transform="translate(54.66667175292969,56.33332824707031)"><path class="blocklyPathDark" transform="translate(1,1)" fill="#1e547a" d="m 0,8 A 8,8 0 0,1 8,0 H 15 l 6,4 3,0 6,-4 H 40 H 163.98242568969727 v 36 H 29.5 l -6,4 -3,0 -6,-4 H 0 z
M 153.98242568969727,5 h -54.62760543823242 v 5 c 0,10 -8,-8 -8,7.5 s 8,-2.5 8,7.5 v 7 h 54.62760543823242 z"></path><path class="blocklyPath" stroke="none" fill="#266999" d="m 0,8 A 8,8 0 0,1 8,0 H 15 l 6,4 3,0 6,-4 H 40 H 163.98242568969727 v 36 H 29.5 l -6,4 -3,0 -6,-4 H 0 z
M 153.98242568969727,5 h -54.62760543823242 v 5 c 0,10 -8,-8 -8,7.5 s 8,-2.5 8,7.5 v 7 h 54.62760543823242 z"></path><path class="blocklyPathLight" stroke="#6796b8" d="m 0.5,7.5 A 7.5,7.5 0 0,1 8,0.5 H 15 l 6,4 3,0 6,-4 H 39.5 M 39.5,0.5 H 163.48242568969727 M 0.5,35.5 V 8
M 154.48242568969727,5.5 v 27 h -54.62760543823242 M 94.25482025146485,24.3 l 3.68,-2.1"></path><g data-id="+yv{9[/vlpYia!X+CMDW" class="blocklyDraggable" transform="translate(100.35482025146484,6)"><path class="blocklyPathDark" transform="translate(1,1)" fill="#1e547a" d="m 0,0 H 52.62760543823242 v 25 H 0 V 20 c 0,-10 -8,8 -8,-7.5 s 8,2.5 8,-7.5 z
"></path><path class="blocklyPath" stroke="none" fill="#266999" d="m 0,0 H 52.62760543823242 v 25 H 0 V 20 c 0,-10 -8,8 -8,-7.5 s 8,2.5 8,-7.5 z
"></path><path class="blocklyPathLight" stroke="#6796b8" d="m 0.5,0.5 H 52.12760543823242 M 52.12760543823242,0.5 M 0.5,24.5 V 18.5 m -7.36,-0.5 q -1.52,-5.5 0,-11 m 7.36,1 V 0.5 H 1
"></path><g style="display: none;"><text class="blocklyText" y="12.5"></text></g><g style="display: none;"><text class="blocklyText" y="12.5"></text></g><g class="blocklyEditableText" transform="translate(10,5)" style="cursor: text;"><rect rx="4" ry="4" x="-5" y="0" height="16" width="42.62760543823242"></rect><text class="blocklyText" y="12.5">1000</text></g></g><g transform="translate(10,10)"><text class="blocklyText" y="12.5">pause (ms)</text></g><g data-id="`sEp;$)MK#b#B?qWm$40" class="blocklyDraggable" transform="translate(0,37)"><path class="blocklyPathDark" transform="translate(1,1)" fill="#7a1e3d" d="m 0,0 H 15 l 6,4 3,0 6,-4 H 40 H 406.78190898895264 v 36 H 29.5 l -6,4 -3,0 -6,-4 H 8 a 8,8 0 0,1 -8,-8 z
M 273.1184949874878,5 h -131.37500286102295 v 5 c 0,10 -8,-8 -8,7.5 s 8,-2.5 8,7.5 v 7 h 131.37500286102295 z"></path><path class="blocklyPath" stroke="none" fill="#99264c" d="m 0,0 H 15 l 6,4 3,0 6,-4 H 40 H 406.78190898895264 v 36 H 29.5 l -6,4 -3,0 -6,-4 H 8 a 8,8 0 0,1 -8,-8 z
M 273.1184949874878,5 h -131.37500286102295 v 5 c 0,10 -8,-8 -8,7.5 s 8,-2.5 8,7.5 v 7 h 131.37500286102295 z"></path><path class="blocklyPathLight" stroke="#b86782" d="m 0.5,0.5 H 15 l 6,4 3,0 6,-4 H 39.5 M 39.5,0.5 H 406.28190898895264 M 2.6966991411008934,33.30330085889911 A 7.5,7.5 0 0,1 0.5,28 V 0.5
M 273.6184949874878,5.5 v 27 h -131.37500286102295 M 136.64349212646485,24.3 l 3.68,-2.1"></path><g transform="translate(10,10)"><text class="blocklyText" y="12.5">Terminal print text</text></g><g transform="translate(283.1184949874878,10)"><text class="blocklyText" y="12.5">then a new line</text></g><g class="blocklyEditableText" transform="translate(391.78190898895264,10)" style="cursor: default;"><rect rx="4" ry="4" x="-5" y="0" height="16" width="15"></rect><text class="blocklyText blocklyCheckbox" y="14" x="-3" style="display: block;">✓</text></g><g data-id="5HwvzvztCY/d7=zIKw_+" class="blocklyDraggable" transform="translate(142.74349212646484,6)"><path class="blocklyPathDark" transform="translate(1,1)" fill="#1e547a" d="m 0,0 H 129.37500286102295 v 25 H 0 V 20 c 0,-10 -8,8 -8,-7.5 s 8,2.5 8,-7.5 z
"></path><path class="blocklyPath" stroke="none" fill="#266999" d="m 0,0 H 129.37500286102295 v 25 H 0 V 20 c 0,-10 -8,8 -8,-7.5 s 8,2.5 8,-7.5 z
"></path><path class="blocklyPathLight" stroke="#6796b8" d="m 0.5,0.5 H 128.87500286102295 M 128.87500286102295,0.5 M 0.5,24.5 V 18.5 m -7.36,-0.5 q -1.52,-5.5 0,-11 m 7.36,1 V 0.5 H 1
"></path><g transform="translate(10,5)"><text class="blocklyText" y="12.5">“</text></g><g class="blocklyEditableText" transform="translate(24.884114742279053,5)" style="cursor: text;"><rect rx="4" ry="4" x="-5" y="0" height="16" width="89.60677337646484"></rect><text class="blocklyText" y="12.5">Hello World!</text></g><g transform="translate(114.4908881187439,5)"><text class="blocklyText" y="12.5">”</text></g></g></g></g></g><rect x="100%" y="100%" rx="7" ry="7" width="218" height="84" style="fill:rgba(255,255,255,0.4);" transform="translate(-232,-100)" /><text class="bkginfo" x="100%" y="100%" transform="translate(-225,-83)" style="font-weight:bold;">Parallax BlocklyProp Project</text><text class="bkginfo" x="100%" y="100%" transform="translate(-225,-68)">User: offline</text><text class="bkginfo" x="100%" y="100%" transform="translate(-225,-53)">Title: FLiP_HelloWorld</text><text class="bkginfo" x="100%" y="100%" transform="translate(-225,-38)">Project ID: 0</text><text class="bkginfo" x="100%" y="100%" transform="translate(-225,-23)">Device: flip</text><text class="bkginfo" x="100%" y="100%" transform="translate(-225,-8)">Description: </text><text class="bkginfo" x="100%" y="100%" transform="translate(-225,13)" data-createdon="Mon Dec 16 2019 10:22:10 GMT+0100 (Central European Standard Time)" data-lastmodified="Mon Dec 16 2019 10:25:43 GMT+0100 (Central European Standard Time)"></text>blockly/xml"><block type="base_delay" id="{vn!*lt-FAD+1Kt`Onpi" x="55" y="56"><value name="DELAY_TIME"><block type="math_number" id="+yv{9[/vlpYia!X+CMDW"><field name="NUM">1000</field></block></value><next><block type="console_print" id="`sEp;$)MK#b#B?qWm$40"><field name="ck_nl">TRUE</field><value name="MESSAGE"><block type="string_type_block" id="5HwvzvztCY/d7=zIKw_+"><field name="TEXT">Hello World!</field></block></value></block></next></block><ckm>003431576921</ckm></svg>